<?xml version="1.0" encoding="utf-8"?>
<!-- Generator: Adobe Illustrator 24.3.0, SVG Export Plug-In . SVG Version: 6.00 Build 0)  -->
<svg version="1.1" id="レイヤー_1" xmlns="http://www.w3.org/2000/svg" xmlns:xlink="http://www.w3.org/1999/xlink" x="0px"
	 y="0px" viewBox="0 0 290.27 290.27" style="enable-background:new 0 0 290.27 290.27;" xml:space="preserve">
<style type="text/css">
	.st0{fill:#040000;}
	.st1{fill:#303263;}
	.st2{fill:#639434;}
	.st3{fill:#C1361F;}
	.st4{fill:#49B78F;}
	.st5{fill:#C13432;}
	.st6{fill:#DCA41C;}
</style>
<g id="hyoshi">
	<path class="st0" d="M121.75,48.98c0.53-0.37,1.35-0.9,2.45-1.43c4.47-2.15,8.3-1.78,19.41-1.8c11.12-0.02,14.81-0.4,19.36,1.66
		c1.27,0.57,2.21,1.16,2.81,1.57"/>
	<polygon class="st0" points="124.21,47.55 30.7,101.17 32.21,102.49 125.72,48.87 	"/>
	<rect x="29.81" y="102.49" class="st0" width="2.4" height="106.53"/>
	<rect x="254.13" y="101.85" class="st0" width="2.4" height="106.53"/>
	<polygon class="st0" points="162.23,46.9 255.67,100.49 254.12,101.84 160.68,48.26 	"/>
</g>
<polygon id="_x36_page" class="st1" points="166.77,159.23 251.83,209.02 251.83,103.86 166.77,54.06 "/>
<polygon id="_x35_page" class="st2" points="154.12,159.23 230.4,224.32 230.4,119.15 154.12,54.06 "/>
<polygon id="_x34_page" class="st3" points="146.47,159.23 187.19,230.57 187.19,125.4 146.47,54.06 "/>
<polygon id="_x31_page" class="st4" points="120.51,159.23 35.44,209.02 35.44,103.86 120.51,54.06 "/>
<polygon id="_x32_page" class="st5" points="132.14,159.23 55.86,224.32 55.86,119.15 132.14,54.06 "/>
<polygon id="_x33_page" class="st6" points="140.81,159.23 100.09,230.57 100.09,125.4 140.81,54.06 "/>
</svg>
